<?xml version="1.0" encoding="UTF-8"?>
<svg width="180px" height="220px" viewBox="0 0 180 220" version="1.1" xmlns="http://www.w3.org/2000/svg" xmlns:xlink="http://www.w3.org/1999/xlink">
    <!-- Generator: Sketch 61 (89581) - https://sketch.com -->
    <title>Group 18</title>
    <desc>Created with Sketch.</desc>
    <g id="Cards-verticales" stroke="none" stroke-width="1" fill="none" fill-rule="evenodd">
        <g id="Group-18">
            <rect id="Rectangle" fill-opacity="0.5" fill="#EBEBEB" x="0" y="0" width="180" height="220"></rect>
            <g id="Group-17" transform="translate(43.000000, 63.000000)" fill="#D8D8D8">
                <path d="M48.9103426,7.64624994 L44.6100737,34 C42.6030285,33.3923209 40.5329785,32.9774934 38.4151055,32.7688989 C38.4151055,32.7688989 38.4105509,32.7657503 38.4067555,32.7665374 C36.3078599,32.5579429 34.1641777,32.5516458 32,32.769686 L36.4551241,5.46191134 C36.905267,2.6895724 38.9753171,0.620157556 41.4917145,0.117956464 L41.5342238,0.110084974 C42.2424587,-0.0276661093 42.9833347,-0.039473345 43.7378744,0.0935548438 L43.7355971,0.105362079 C43.7424289,0.10457493 43.7469835,0.107723527 43.7545744,0.106149229 C43.7614063,0.10457493 43.7727927,0.106936378 43.7811427,0.109297825 L43.7879746,0.107723527 C43.7955655,0.106149229 43.8023974,0.105362079 43.806952,0.108510676 C44.2768313,0.192735624 44.7262151,0.334422452 45.1459942,0.520976776 C47.7823285,1.67257583 49.4090675,4.59053734 48.9103426,7.64624994" id="Fill-1"></path>
                <path d="M71.2055614,16.76225 L57.7557513,42 C56.1852917,40.5017677 54.4820638,39.1646527 52.6657932,38.0028711 C52.6627585,37.999712 52.6582064,37.9965528 52.6544131,37.9973426 C50.8662135,36.8458283 48.9710405,35.8735964 47,35.0901244 L60.1630306,10.3862726 C61.3807057,8.10535816 63.7075654,6.87091587 66.0511159,7.01070876 C66.9706313,7.06362471 67.8916641,7.32978405 68.7482094,7.82498259 L68.6852393,7.94108177 L68.7079996,7.96398569 L68.7770391,7.84235798 C70.0394762,8.58160173 70.9650611,9.70468358 71.4930996,10.9975703 C72.2305328,12.7959229 72.1872883,14.9196691 71.2055614,16.76225" id="Fill-7"></path>
                <path d="M89.8571909,30.2603974 C90.0779115,31.3025346 90.0424386,32.3892892 89.7531369,33.4162883 C89.4299389,34.6098062 88.7638357,35.72365 87.7784759,36.6040487 L67.130852,55 C66.2936903,52.8495962 65.2610332,50.8131264 64.0573176,48.9128993 L64.0517996,48.9017449 C62.8591201,47.0230298 61.5040532,45.2741835 60,43.673531 L79.1010031,26.654348 C81.4162045,24.5931792 84.7680045,24.4808388 87.1817419,26.189848 L87.1912014,26.1954252 L87.4103454,26.3627408 C88.666088,27.3204234 89.5355695,28.7043624 89.8571909,30.2603974" id="Fill-11"></path>
                <path d="M94.5643451,54.22991 L94.5604262,54.22991 C94.5596424,54.2259576 94.5588586,54.2227957 94.5588586,54.2227957 L94.5627775,54.2220052 C94.5619937,54.2180528 94.5619937,54.2180528 94.5619937,54.2141004 C94.4499112,53.9271552 94.3245042,53.6536482 94.1834213,53.3912079 C92.632293,50.5620704 89.2078972,49.2474977 86.1330734,50.4395456 L68,57.4732605 C68.4420598,58.8977102 68.7994698,60.3703795 69.0628246,61.8778299 C69.1858803,62.58215 69.2869897,63.2912129 69.3677205,63.9923711 C69.6389132,66.3606572 69.666346,68.7036478 69.4703975,71 L90.8170262,62.7228559 C92.2309905,62.1758419 93.3478969,61.1806242 94.0721225,59.9640714 L94.0713387,59.960119 C95.0659733,58.2874576 95.3113008,56.1879356 94.5643451,54.22991" id="Fill-13"></path>
                <path d="M60.4158068,62.2999045 C60.3491437,61.9897782 60.2777189,61.6828246 60.200739,61.3782505 C60.1301078,61.0871601 60.050747,60.7960697 59.9658309,60.5113246 C59.3952266,58.5141432 58.5944759,56.6319703 57.6032592,54.8830485 C57.6024656,54.8798759 57.601672,54.8727374 57.5969104,54.8695648 C56.5937896,53.096055 55.3922667,51.4597622 54.0280542,49.9884471 C53.8979024,49.8472643 53.7637827,49.7068747 53.6256948,49.5672782 C52.1948192,48.0888246 50.5956986,46.7872461 48.8640455,45.6847512 L48.8632519,45.6847512 C48.8584902,45.6776127 48.8505542,45.6752332 48.8457925,45.6680948 C47.0689037,44.5370461 45.1515462,43.6209442 43.1373686,42.9412045 C43.1286389,42.938825 43.1199092,42.9348592 43.1111795,42.9316866 C43.0326123,42.9070986 42.9580131,42.8809242 42.8794459,42.8595089 C41.7668072,42.4946544 40.6255985,42.2075299 39.4621689,41.9957557 C38.5336473,41.8268122 37.5900471,41.7046653 36.6369236,41.639626 L36.6329556,41.639626 C34.5346554,41.487339 32.3839771,41.5936226 30.2190139,41.9751335 L30.2166331,41.9751335 C30.2166331,41.9751335 30.2158395,41.9751335 30.2150459,41.9759266 C30.0999727,41.9957557 29.9833123,42.0163779 29.8682391,42.0401727 C29.8674455,42.0409659 29.8658582,42.0409659 29.864271,42.0417591 C29.515877,42.1075915 29.1714511,42.1805624 28.8294059,42.2590854 C28.7032222,42.2892255 28.5794193,42.3225383 28.4540292,42.355058 C28.2381678,42.4074066 28.0223063,42.4589622 27.8096193,42.5176561 C27.7120055,42.5438305 27.6167725,42.5747638 27.5199523,42.6025244 C27.2802827,42.6707364 27.0398194,42.7397414 26.8033241,42.8142986 C26.7485651,42.8317482 26.6945998,42.8515772 26.6398408,42.86982 C26.3620779,42.9594473 26.0859023,43.051454 25.8121074,43.1498061 C25.804965,43.1529787 25.7962353,43.1569445 25.7882992,43.159324 C24.5240813,43.6177715 23.3098607,44.1674327 22.1535735,44.8003758 C22.0623086,44.8551039 21.97025,44.9098321 21.8734298,44.9590081 C21.7289931,45.0343585 21.577414,45.0993978 21.4194859,45.1525396 C21.2623515,45.2056815 21.0988682,45.2469259 20.9306233,45.277066 L20.9290361,45.277066 C20.8187245,45.2968951 20.7100002,45.3095857 20.6012759,45.3183104 C20.5552466,45.3214831 20.5108045,45.3206899 20.4647752,45.3222762 C20.4020802,45.3238626 20.3385915,45.3278284 20.2766901,45.3262421 C20.2195503,45.3246557 20.1624105,45.3183104 20.1060643,45.3143446 C20.0568606,45.3103788 20.0068633,45.3087925 19.9584532,45.3024472 C19.8957581,45.2953087 19.8354439,45.2834113 19.7751297,45.2723071 C19.7322749,45.2643754 19.6886264,45.2588233 19.6465652,45.2493054 C19.5830765,45.2350284 19.5219687,45.2167857 19.4608608,45.1993362 C19.421974,45.1890251 19.3822936,45.1795071 19.3442004,45.1668165 C19.282299,45.1469875 19.2219848,45.1231926 19.1616705,45.0986046 C19.1251646,45.0851209 19.087865,45.0716371 19.0521526,45.056567 C18.992632,45.0311859 18.9346986,45.0010457 18.8767652,44.9724919 C18.8418464,44.9550423 18.8061341,44.9375928 18.7720089,44.9193501 C18.7164563,44.8892099 18.662491,44.8551039 18.6085256,44.820998 C18.5736068,44.8003758 18.5394817,44.7789604 18.5061501,44.7567519 C18.4553592,44.7218528 18.4053619,44.6845742 18.3569518,44.6465024 C18.3228266,44.6211212 18.2887015,44.59574 18.2561636,44.5687725 C18.2101343,44.5314939 18.1672794,44.4910427 18.1228374,44.4505914 C18.0895058,44.4196581 18.0561743,44.389518 18.0236363,44.3569983 C17.9831623,44.3173402 17.9450691,44.2745095 17.9077695,44.2332651 C17.8752316,44.1975728 17.8419001,44.1610874 17.8109493,44.1238088 C17.7768242,44.0817712 17.7442863,44.0389405 17.7117483,43.9953166 C17.6807976,43.953279 17.6498469,43.9112414 17.621277,43.8684107 C17.5919135,43.8255799 17.5649308,43.7811629 17.5387417,43.737539 C17.5101718,43.6899493 17.4816019,43.6431527 17.4554129,43.5939767 C17.4316046,43.5503528 17.4101772,43.5059357 17.3879562,43.4607255 C17.3625607,43.40917 17.3387525,43.355235 17.3149442,43.3013 C17.2966912,43.2568829 17.2800254,43.2124659 17.2633597,43.1672556 C17.2419322,43.1093548 17.222092,43.0506609 17.2038391,42.9919669 C17.1903477,42.9475498 17.17765,42.9015464 17.1657459,42.8555431 C17.1435248,42.7706747 17.1220974,42.6858064 17.1070188,42.5969723 L17.1062252,42.595386 C17.0959083,42.5390715 17.086385,42.4835502 17.0816234,42.4304083 L15.4539329,33.2083161 C15.4531393,33.2099024 15.4523457,33.2106956 15.4507585,33.2122819 L14.5087455,27.8750962 C13.5953025,22.6933702 8.65350406,19.2320121 3.46568711,20.1465277 C2.2776556,20.3559224 1.1777146,20.7794708 0.201576489,21.3695831 C0.131738965,21.4631762 0.0666630907,21.5567693 0,21.6463966 L3.81725555,43.2790915 L10.6256205,81.871965 C11.193844,85.0898224 10.0740628,88.2117072 7.90592511,90.3373808 C9.09792467,91.5382278 10.600225,92.4099126 12.253311,92.8437721 C13.5429243,93.1816591 14.9238026,93.2530436 16.3205531,93.0071635 C18.3339372,92.6526201 20.0838433,91.6928944 21.4178987,90.3453125 C21.5551929,90.2088886 21.6877255,90.0669127 21.8154964,89.9209709 C23.6661908,87.8254374 24.5804275,84.935949 24.0566461,81.9695239 L22.0115177,70.3782574 C21.988503,70.2703874 21.97025,70.1617242 21.9504098,70.0530611 L21.9496162,70.0498884 C21.9099358,69.8254236 21.8845404,69.6033383 21.8567641,69.381253 C21.8393047,69.2321386 21.8194645,69.0838173 21.8067667,68.9354961 C21.7916882,68.7728979 21.7829585,68.6110929 21.775816,68.4492879 C21.7670863,68.2938282 21.7583566,68.1383685 21.7559758,67.9844951 C21.753595,67.8306217 21.7567694,67.6775415 21.7599439,67.5252544 C21.7631183,67.3650357 21.7654991,67.2048171 21.7750224,67.0445984 C21.7821649,66.9002429 21.7972434,66.7558875 21.8099412,66.6123252 C21.8250197,66.4473475 21.8393047,66.2823699 21.8599385,66.1197717 C21.8773979,65.9833479 21.9012061,65.8477172 21.9234272,65.7120865 C21.9504098,65.5447294 21.9758053,65.3773723 22.0099304,65.2116015 C22.0361195,65.0839024 22.0678638,64.9577897 22.0972274,64.8300906 C22.1377014,64.6611472 22.1757946,64.4906174 22.2226175,64.3232602 C22.2551554,64.204286 22.2940422,64.0876912 22.3305482,63.9703032 C22.3829263,63.7981871 22.4360981,63.6252779 22.4956187,63.4555412 C22.5345055,63.3476712 22.5773603,63.2413876 22.618628,63.1351039 C22.6860847,62.9598151 22.7527477,62.7845264 22.8273469,62.6139966 C22.8686145,62.5164377 22.916231,62.4236377 22.9606731,62.3284583 C23.0424147,62.1507901 23.12495,61.9723287 23.2154213,61.7986262 C23.2582762,61.7161374 23.3050991,61.6368212 23.3503347,61.5559187 C23.4495358,61.3726984 23.5495304,61.1910643 23.6582547,61.0133961 C23.6971415,60.94915 23.74079,60.8872833 23.7804704,60.8238304 C23.9010988,60.6334716 24.0233145,60.4446991 24.1534663,60.2614787 C24.1828298,60.2194411 24.2153677,60.179783 24.2455248,60.1385386 C24.3915487,59.9370755 24.5415407,59.7371987 24.6994687,59.5436673 C24.7066112,59.5365288 24.7137537,59.5285972 24.7201025,59.5198724 C25.4668879,58.6124953 26.3374761,57.8026771 27.312027,57.1221443 C28.819089,56.0648596 30.5769312,55.3137354 32.5101608,54.973469 C33.145841,54.8616332 33.7807276,54.7965939 34.4060909,54.7799375 C34.9909801,54.7624879 35.5687269,54.787076 36.1393312,54.8473563 C36.1663139,54.8497357 36.1940902,54.8505289 36.2218665,54.8537016 C37.8606675,55.0369219 39.4264565,55.5286822 40.8509833,56.2798065 C40.8771723,56.2940834 40.9025678,56.3107398 40.9295505,56.3258098 C41.4382534,56.5986575 41.9302904,56.9032316 42.3977257,57.243498 C42.411217,57.253016 42.4231212,57.2585681 42.4366125,57.2672929 L42.4374061,57.2672929 C42.4588335,57.2839493 42.4794673,57.3013989 42.5016884,57.3180553 C42.9167455,57.6250089 43.3206921,57.9565505 43.6952751,58.3174391 L43.6992432,58.316646 C45.0467899,59.5841185 46.1332396,61.1434746 46.8490742,62.9241228 C46.9935109,63.2762867 47.118901,63.6371753 47.2307998,64.0028229 C47.2331806,64.0147203 47.2339742,64.0226519 47.2387359,64.0289972 C47.3625387,64.439855 47.463327,64.8554718 47.5466558,65.2853655 C47.5641152,65.3638885 47.5784002,65.4471705 47.5934787,65.5304525 C47.6482377,65.8397856 47.6910925,66.1483255 47.7236305,66.4552792 C47.947428,68.6071271 47.6283975,70.7058332 46.8681208,72.607042 L46.8705016,72.6062489 C46.869708,72.6078352 46.869708,72.6094215 46.8689144,72.6110079 C46.86574,72.6149737 46.86574,72.6149737 46.8625656,72.6197326 C46.7514604,72.9005119 46.6252767,73.180498 46.4903633,73.4533457 C46.3800518,73.68019 46.2625977,73.9022753 46.1403821,74.1219811 C44.548404,76.9757772 41.8985461,79.2124935 38.6169761,80.2221885 C38.1035116,80.3784413 37.5725877,80.5069335 37.0313469,80.6029061 C36.6694615,80.6663591 36.3115442,80.7139488 35.9520397,80.7464684 C35.771097,80.7623316 35.590948,80.778988 35.4123861,80.7869197 L35.4084181,80.7877128 C33.9862721,81.2969227 32.7466561,82.1313289 31.7467097,83.1822683 C29.7317385,85.2976308 28.7095711,88.303714 29.2555735,91.401804 C29.3888997,92.1584803 29.6095228,92.8762918 29.8999834,93.5496861 C31.865751,93.9224722 33.8997688,94.0676208 35.9631502,93.970855 C37.0765826,93.9185064 38.197951,93.7995321 39.3232874,93.6012416 C39.324081,93.6012416 39.3248747,93.6012416 39.3256683,93.6004485 L39.3272555,93.6004485 C41.9374329,93.1404146 44.3888887,92.3036289 46.6379744,91.1638554 C47.1569942,90.9005257 47.6688715,90.6260917 48.1648766,90.3310356 C54.0455136,86.837951 58.3302044,81.1620852 60.1007443,74.6073961 C60.7411862,72.2287039 61.055455,69.7365895 60.9919664,67.189747 L60.9911727,67.1857812 C60.9776814,66.533009 60.9372074,65.8770642 60.8721315,65.2195331 C60.8070556,64.5612088 60.7157907,63.900505 60.5983367,63.2390081 C60.5435777,62.9225365 60.4824699,62.6100308 60.4158068,62.2999045" id="Fill-17"></path>
            </g>
        </g>
    </g>
</svg>