<?xml version="1.0" encoding="UTF-8"?>
<svg width="243px" height="297px" viewBox="0 0 243 297" version="1.1" xmlns="http://www.w3.org/2000/svg" xmlns:xlink="http://www.w3.org/1999/xlink">
    <!-- Generator: Sketch 61 (89581) - https://sketch.com -->
    <title>Group 24</title>
    <desc>Created with Sketch.</desc>
    <g id="Componentes" stroke="none" stroke-width="1" fill="none" fill-rule="evenodd">
        <g id="Group-24">
            <rect id="Rectangle" fill="#EBEBEB" x="0" y="0" width="243" height="297"></rect>
            <g id="Group-19" transform="translate(90.000000, 117.000000)">
                <rect id="Rectangle" x="0" y="0" width="64" height="64"></rect>
                <g id="image-block" transform="translate(5.079365, 5.079365)" fill="#AAAAAA" opacity="0.5">
                    <path d="M49.9108571,4.17027685 C45.3763217,-0.297921366 38.2621707,-0.995985541 32.9184174,2.5029221 C27.5746641,6.00182975 25.4892945,12.7234266 27.937427,18.5577303 C30.3855596,24.3920341 36.6855037,27.7144632 42.9851003,26.4934878 C49.2846969,25.2725124 53.8298023,19.8481171 53.8412913,13.5370986 C53.8476499,10.0258935 52.4336961,6.65620841 49.9108571,4.17027685 Z M32.3046846,13.5370986 C32.3046846,9.15307078 35.9205955,5.59911406 40.3809524,5.59911406 C41.5842504,5.60612308 42.7707482,5.87733087 43.8537143,6.39291251 L33.0854603,16.9768918 C32.566276,15.9022779 32.299468,14.7267093 32.3046846,13.5370986 L32.3046846,13.5370986 Z M46.088127,19.1466076 C43.6359332,21.4377201 40.013438,22.0346281 36.9351111,20.6548247 L47.7033651,10.0708453 C48.217223,11.1556518 48.4749057,12.3406077 48.4571429,13.5370986 C48.4552579,15.6416736 47.6031394,17.6593748 46.088127,19.1466076 L46.088127,19.1466076 Z M45.7650794,32.0590624 C44.2782938,32.0590624 43.0730159,33.2437146 43.0730159,34.7050572 L43.0730159,35.7369952 L39.0887619,31.7944629 C36.1152556,29.0490189 31.4824587,29.0490189 28.5089524,31.7944629 L26.6245079,33.6731192 L19.9481905,27.0845921 C16.9746842,24.3391481 12.3418873,24.3391481 9.36838095,27.0845921 L5.38412698,31.0271244 L5.38412698,16.1830934 C5.38412698,14.7217508 6.58940486,13.5370986 8.07619048,13.5370986 L18.8444444,13.5370986 C20.3312301,13.5370986 21.5365079,12.3524463 21.5365079,10.8911037 C21.5365079,9.42976113 20.3312301,8.2451089 18.8444444,8.2451089 L8.07619048,8.2451089 C3.61583364,8.2451089 0,11.7990656 0,16.1830934 L0,47.9350314 C0,52.3190592 3.61583364,55.8730159 8.07619048,55.8730159 L40.3809524,55.8730159 C41.252551,55.8597166 42.1162106,55.7078117 42.9384127,55.4231968 L43.1806984,55.4231968 C45.9940231,54.4365023 48.0235134,52.0041163 48.4571429,49.0992691 C48.4723514,48.9055174 48.4723514,48.710902 48.4571429,48.5171502 L48.4571429,34.7050572 C48.4571429,33.2437146 47.251865,32.0590624 45.7650794,32.0590624 Z M8.07619048,50.5810262 C6.58940486,50.5810262 5.38412698,49.396374 5.38412698,47.9350314 L5.38412698,38.4888298 L13.1911111,30.8419048 C14.012592,30.0724661 15.3039794,30.0724661 16.1254603,30.8419048 L24.7131429,39.2561683 L24.7131429,39.2561683 L36.2351746,50.5810262 L8.07619048,50.5810262 Z M43.0730159,47.9350314 C43.0557258,48.447392 42.8873811,48.9437836 42.5884444,49.3638686 L30.4203175,37.351052 L32.3316825,35.4988557 C33.1531635,34.729417 34.4445508,34.729417 35.2660317,35.4988557 L43.0730159,43.1987006 L43.0730159,47.9350314 Z" id="Shape"></path>
                </g>
            </g>
        </g>
    </g>
</svg>