<!-- Generated by IcoMoon.io -->
<svg version="1.1" xmlns="http://www.w3.org/2000/svg" width="32" height="32" viewBox="0 0 32 32">
<title>more</title>
<path d="M17.067 11.733v3.2h3.2v2.133h-3.2v3.2h-2.133v-3.2h-3.2v-2.133h3.2v-3.2h2.133zM16 24.667c4.786 0 8.667-3.88 8.667-8.667s-3.88-8.667-8.667-8.667c-4.786 0-8.667 3.88-8.667 8.667s3.88 8.667 8.667 8.667zM16 26.667c-5.891 0-10.667-4.776-10.667-10.667s4.776-10.667 10.667-10.667c5.891 0 10.667 4.776 10.667 10.667s-4.776 10.667-10.667 10.667z"></path>
</svg>
