<!-- Generated by IcoMoon.io -->
<svg version="1.1" xmlns="http://www.w3.org/2000/svg" width="32" height="32" viewBox="0 0 32 32">
<title>user</title>
<path d="M25.333 26.667h-2.397v-4.040c0-2.068-1.297-3.717-2.869-3.717h-8.135c-1.572 0-2.869 1.649-2.869 3.717v4.040h-2.397v-4.040c0-3.645 2.345-6.626 5.266-6.626h8.135c2.921 0 5.266 2.981 5.266 6.626v4.040zM16.067 14.667c-2.946 0-5.333-2.388-5.333-5.333s2.388-5.333 5.333-5.333c2.946 0 5.333 2.388 5.333 5.333s-2.388 5.333-5.333 5.333zM16.067 12.296c1.636 0 2.963-1.327 2.963-2.963s-1.327-2.963-2.963-2.963c-1.636 0-2.963 1.327-2.963 2.963s1.327 2.963 2.963 2.963z"></path>
</svg>
