<!-- Generated by IcoMoon.io -->
<svg version="1.1" xmlns="http://www.w3.org/2000/svg" width="32" height="32" viewBox="0 0 32 32">
<title>what_is</title>
<path d="M16 26.667c-5.891 0-10.667-4.776-10.667-10.667s4.776-10.667 10.667-10.667c5.891 0 10.667 4.776 10.667 10.667s-4.776 10.667-10.667 10.667zM13.875 13.133c0.073-1.112 0.829-1.823 2.005-1.823 1.148 0 1.914 0.684 1.914 1.631 0 0.902-0.383 1.385-1.513 2.069-1.258 0.738-1.786 1.559-1.704 2.926l0.009 0.62h2.115v-0.52c0-0.902 0.337-1.367 1.531-2.069 1.24-0.738 1.932-1.714 1.932-3.108 0-2.014-1.668-3.454-4.165-3.454-2.707 0-4.193 1.568-4.266 3.728h2.142zM17.257 21.454c0-0.884-0.583-1.458-1.513-1.458-0.911 0-1.513 0.574-1.513 1.458 0 0.875 0.602 1.449 1.513 1.449 0.93 0 1.513-0.574 1.513-1.449z"></path>
</svg>
